<?xml version="1.0" encoding="iso-8859-1"?>
<!-- Uploaded to: SVG Repo, www.svgrepo.com, Generator: SVG Repo Mixer Tools -->
<svg height="800px" width="800px" version="1.1" id="Layer_1" xmlns="http://www.w3.org/2000/svg" xmlns:xlink="http://www.w3.org/1999/xlink" 
	 viewBox="0 0 483.359 483.359" xml:space="preserve">
<path style="fill:#893210;" d="M241.664,385.197c-7.389,0-13.351-5.963-13.351-13.336v-139.13c0-7.389,5.971-13.367,13.351-13.367
	c7.381,0,13.351,5.986,13.351,13.367v139.122C255.015,379.234,249.053,385.197,241.664,385.197z"/>
<path style="fill:#561D0B;" d="M241.664,336.628c-7.389,0-13.351-5.963-13.351-13.336v-139.13c0-7.389,5.971-13.367,13.351-13.367
	c7.381,0,13.351,5.986,13.351,13.367v139.122C255.015,330.665,249.053,336.628,241.664,336.628z"/>
<g>
	<path style="fill:#9CB75F;" d="M288.421,388.545h-93.499c-3.694,0-6.68-2.977-6.68-6.672c0-3.71,2.985-6.695,6.68-6.695h93.491
		c3.694,0,6.68,2.985,6.68,6.695C295.093,385.568,292.108,388.545,288.421,388.545z"/>
	<path style="fill:#9CB75F;" d="M231.203,411.916h-30.815c-3.694,0-6.68-2.985-6.68-6.672c0-3.71,2.985-6.688,6.68-6.688h30.815
		c3.694,0,6.68,2.977,6.68,6.688C237.883,408.93,234.898,411.916,231.203,411.916z"/>
	<path style="fill:#9CB75F;" d="M282.955,411.916H252.14c-3.679,0-6.68-2.985-6.68-6.672c0-3.71,3.001-6.688,6.68-6.688h30.814
		c3.694,0,6.68,2.977,6.68,6.688C289.634,408.93,286.649,411.916,282.955,411.916z"/>
</g>
<polygon style="fill:#17AA2B;" points="351.894,308.846 241.664,35.123 131.45,308.846 "/>
<g>
	<polygon style="fill:#28C636;" points="203.217,277.339 190.48,257.757 177.727,277.339 	"/>
	<polygon style="fill:#28C636;" points="221.924,219.246 209.187,199.672 196.435,219.246 	"/>
	<polygon style="fill:#28C636;" points="258.355,265.523 245.618,245.941 232.865,265.523 	"/>
</g>
<polygon style="fill:#118927;" points="351.894,308.846 241.664,35.123 230.51,308.846 "/>
<g>
	<polygon style="fill:#28C636;" points="264.263,249.769 251.526,230.187 238.773,249.769 	"/>
	<polygon style="fill:#28C636;" points="306.601,288.169 293.864,268.595 281.112,288.169 	"/>
	<polygon style="fill:#28C636;" points="254.417,144.416 241.68,124.841 228.927,144.416 	"/>
	<polygon style="fill:#28C636;" points="292.817,199.554 280.08,179.98 267.327,199.554 	"/>
</g>
<path style="fill:#893210;" d="M32.437,475.364c-2.166,0-3.923-1.757-3.923-3.931v-40.952c0-2.182,1.757-3.938,3.923-3.938
	c2.182,0,3.938,1.757,3.938,3.938v40.952C36.376,473.608,34.619,475.364,32.437,475.364z"/>
<path style="fill:#561D0B;" d="M32.437,461.068c-2.166,0-3.923-1.757-3.923-3.923v-40.968c0-2.166,1.757-3.931,3.923-3.931
	c2.182,0,3.938,1.764,3.938,3.931v40.968C36.376,459.311,34.619,461.068,32.437,461.068z"/>
<g>
	<path style="fill:#9CB75F;" d="M46.222,476.357H18.676c-1.095,0-1.969-0.874-1.969-1.969c0-1.095,0.874-1.969,1.969-1.969h27.538
		c1.079,0,1.953,0.874,1.953,1.969C48.167,475.483,47.293,476.357,46.222,476.357z"/>
	<path style="fill:#9CB75F;" d="M29.357,483.241h-9.074c-1.079,0-1.969-0.89-1.969-1.969c0-1.095,0.89-1.969,1.969-1.969h9.074
		c1.095,0,1.969,0.874,1.969,1.969C31.327,482.351,30.452,483.241,29.357,483.241z"/>
	<path style="fill:#9CB75F;" d="M44.599,483.241h-9.074c-1.095,0-1.969-0.89-1.969-1.969c0-1.095,0.874-1.969,1.969-1.969h9.074
		c1.095,0,1.969,0.874,1.969,1.969C46.568,482.351,45.694,483.241,44.599,483.241z"/>
</g>
<polygon style="fill:#17AA2B;" points="64.898,452.892 32.437,372.303 0,452.892 "/>
<polygon style="fill:#118927;" points="64.898,452.892 32.437,372.303 29.16,452.892 "/>
<path style="fill:#893210;" d="M127.945,475.364c-2.166,0-3.923-1.757-3.923-3.931v-40.952c0-2.182,1.757-3.938,3.923-3.938
	c2.182,0,3.938,1.757,3.938,3.938v40.952C131.883,473.608,130.127,475.364,127.945,475.364z"/>
<path style="fill:#561D0B;" d="M127.945,461.068c-2.166,0-3.923-1.757-3.923-3.923v-40.968c0-2.166,1.757-3.931,3.923-3.931
	c2.182,0,3.938,1.764,3.938,3.931v40.968C131.883,459.311,130.127,461.068,127.945,461.068z"/>
<g>
	<path style="fill:#9CB75F;" d="M141.729,476.357h-27.538c-1.095,0-1.969-0.874-1.969-1.969c0-1.095,0.874-1.969,1.969-1.969h27.538
		c1.079,0,1.953,0.874,1.953,1.969C143.683,475.483,142.801,476.357,141.729,476.357z"/>
	<path style="fill:#9CB75F;" d="M124.865,483.241h-9.074c-1.079,0-1.969-0.89-1.969-1.969c0-1.095,0.89-1.969,1.969-1.969h9.074
		c1.095,0,1.969,0.874,1.969,1.969C126.834,482.351,125.96,483.241,124.865,483.241z"/>
	<path style="fill:#9CB75F;" d="M140.107,483.241h-9.074c-1.095,0-1.969-0.89-1.969-1.969c0-1.095,0.874-1.969,1.969-1.969h9.074
		c1.095,0,1.969,0.874,1.969,1.969C142.076,482.351,141.202,483.241,140.107,483.241z"/>
</g>
<polygon style="fill:#17AA2B;" points="160.406,452.892 127.945,372.303 95.508,452.892 "/>
<polygon style="fill:#118927;" points="160.406,452.892 127.945,372.303 124.668,452.892 "/>
<path style="fill:#893210;" d="M80.187,358.187c-2.166,0-3.923-1.749-3.923-3.923v-40.952c0-2.182,1.757-3.938,3.923-3.938
	c2.198,0,3.938,1.757,3.938,3.938v40.952C84.126,356.439,82.385,358.187,80.187,358.187z"/>
<path style="fill:#561D0B;" d="M80.187,343.899c-2.166,0-3.923-1.757-3.923-3.923v-40.968c0-2.166,1.757-3.931,3.923-3.931
	c2.198,0,3.938,1.764,3.938,3.931v40.968C84.126,342.142,82.385,343.899,80.187,343.899z"/>
<g>
	<path style="fill:#9CB75F;" d="M93.972,359.188H66.434c-1.095,0-1.969-0.874-1.969-1.969c0-1.095,0.874-1.969,1.969-1.969h27.538
		c1.079,0,1.953,0.874,1.953,1.969C95.925,358.313,95.051,359.188,93.972,359.188z"/>
	<path style="fill:#9CB75F;" d="M77.123,366.064h-9.09c-1.063,0-1.969-0.882-1.969-1.961c0-1.095,0.906-1.969,1.969-1.969h9.09
		c1.079,0,1.969,0.874,1.969,1.969C79.092,365.182,78.202,366.064,77.123,366.064z"/>
	<path style="fill:#9CB75F;" d="M92.357,366.064h-9.074c-1.095,0-1.969-0.882-1.969-1.961c0-1.095,0.874-1.969,1.969-1.969h9.074
		c1.095,0,1.969,0.874,1.969,1.969C94.326,365.182,93.452,366.064,92.357,366.064z"/>
</g>
<polygon style="fill:#17AA2B;" points="112.648,335.722 80.187,255.134 47.742,335.722 "/>
<polygon style="fill:#118927;" points="112.648,335.722 80.187,255.134 76.91,335.722 "/>
<path style="fill:#893210;" d="M355.391,475.364c-2.166,0-3.923-1.757-3.923-3.931v-40.952c0-2.182,1.757-3.938,3.923-3.938
	c2.182,0,3.938,1.757,3.938,3.938v40.952C359.329,473.608,357.573,475.364,355.391,475.364z"/>
<path style="fill:#561D0B;" d="M355.391,461.068c-2.166,0-3.923-1.757-3.923-3.923v-40.968c0-2.166,1.757-3.931,3.923-3.931
	c2.182,0,3.938,1.764,3.938,3.931v40.968C359.329,459.311,357.573,461.068,355.391,461.068z"/>
<g>
	<path style="fill:#9CB75F;" d="M369.176,476.357h-27.538c-1.095,0-1.969-0.874-1.969-1.969c0-1.095,0.874-1.969,1.969-1.969h27.538
		c1.079,0,1.953,0.874,1.953,1.969C371.129,475.483,370.247,476.357,369.176,476.357z"/>
	<path style="fill:#9CB75F;" d="M352.311,483.241h-9.074c-1.079,0-1.969-0.89-1.969-1.969c0-1.095,0.89-1.969,1.969-1.969h9.074
		c1.095,0,1.969,0.874,1.969,1.969C354.28,482.351,353.406,483.241,352.311,483.241z"/>
	<path style="fill:#9CB75F;" d="M367.553,483.241h-9.074c-1.095,0-1.969-0.89-1.969-1.969c0-1.095,0.874-1.969,1.969-1.969h9.074
		c1.095,0,1.969,0.874,1.969,1.969C369.522,482.351,368.648,483.241,367.553,483.241z"/>
</g>
<polygon style="fill:#17AA2B;" points="387.852,452.892 355.391,372.303 322.954,452.892 "/>
<polygon style="fill:#118927;" points="387.852,452.892 355.391,372.303 352.114,452.892 "/>
<path style="fill:#893210;" d="M450.899,475.364c-2.166,0-3.923-1.757-3.923-3.931v-40.952c0-2.182,1.757-3.938,3.923-3.938
	c2.182,0,3.938,1.757,3.938,3.938v40.952C454.837,473.608,453.081,475.364,450.899,475.364z"/>
<path style="fill:#561D0B;" d="M450.899,461.068c-2.166,0-3.923-1.757-3.923-3.923v-40.968c0-2.166,1.757-3.931,3.923-3.931
	c2.182,0,3.938,1.764,3.938,3.931v40.968C454.837,459.311,453.081,461.068,450.899,461.068z"/>
<g>
	<path style="fill:#9CB75F;" d="M464.683,476.357h-27.538c-1.095,0-1.969-0.874-1.969-1.969c0-1.095,0.874-1.969,1.969-1.969h27.538
		c1.079,0,1.953,0.874,1.953,1.969C466.637,475.483,465.755,476.357,464.683,476.357z"/>
	<path style="fill:#9CB75F;" d="M447.819,483.241h-9.074c-1.079,0-1.969-0.89-1.969-1.969c0-1.095,0.89-1.969,1.969-1.969h9.074
		c1.095,0,1.969,0.874,1.969,1.969C449.788,482.351,448.914,483.241,447.819,483.241z"/>
	<path style="fill:#9CB75F;" d="M463.061,483.241h-9.074c-1.095,0-1.969-0.89-1.969-1.969c0-1.095,0.874-1.969,1.969-1.969h9.074
		c1.095,0,1.969,0.874,1.969,1.969C465.03,482.351,464.156,483.241,463.061,483.241z"/>
</g>
<polygon style="fill:#17AA2B;" points="483.359,452.892 450.899,372.303 418.462,452.892 "/>
<polygon style="fill:#118927;" points="483.359,452.892 450.899,372.303 447.622,452.892 "/>
<path style="fill:#893210;" d="M403.141,358.187c-2.166,0-3.923-1.749-3.923-3.923v-40.952c0-2.182,1.757-3.938,3.923-3.938
	c2.198,0,3.938,1.757,3.938,3.938v40.952C407.079,356.439,405.339,358.187,403.141,358.187z"/>
<path style="fill:#561D0B;" d="M403.141,343.899c-2.166,0-3.923-1.757-3.923-3.923v-40.968c0-2.166,1.757-3.931,3.923-3.931
	c2.198,0,3.938,1.764,3.938,3.931v40.968C407.079,342.142,405.339,343.899,403.141,343.899z"/>
<g>
	<path style="fill:#9CB75F;" d="M416.926,359.188h-27.538c-1.095,0-1.969-0.874-1.969-1.969c0-1.095,0.874-1.969,1.969-1.969h27.538
		c1.079,0,1.953,0.874,1.953,1.969C418.879,358.313,418.005,359.188,416.926,359.188z"/>
	<path style="fill:#9CB75F;" d="M400.077,366.064h-9.09c-1.063,0-1.969-0.882-1.969-1.961c0-1.095,0.906-1.969,1.969-1.969h9.09
		c1.079,0,1.969,0.874,1.969,1.969C402.046,365.182,401.156,366.064,400.077,366.064z"/>
	<path style="fill:#9CB75F;" d="M415.311,366.064h-9.074c-1.095,0-1.969-0.882-1.969-1.961c0-1.095,0.874-1.969,1.969-1.969h9.074
		c1.095,0,1.969,0.874,1.969,1.969C417.28,365.182,416.406,366.064,415.311,366.064z"/>
</g>
<polygon style="fill:#17AA2B;" points="435.602,335.722 403.141,255.134 370.696,335.722 "/>
<polygon style="fill:#118927;" points="435.602,335.722 403.141,255.134 399.864,335.722 "/>
<path style="fill:#893210;" d="M32.437,103.18c-2.166,0-3.923-1.757-3.923-3.931V58.297c0-2.182,1.757-3.938,3.923-3.938
	c2.182,0,3.938,1.757,3.938,3.938v40.952C36.376,101.423,34.619,103.18,32.437,103.18z"/>
<path style="fill:#561D0B;" d="M32.437,88.883c-2.166,0-3.923-1.757-3.923-3.923V43.985c0-2.166,1.757-3.931,3.923-3.931
	c2.182,0,3.938,1.764,3.938,3.931v40.968C36.376,87.127,34.619,88.883,32.437,88.883z"/>
<g>
	<path style="fill:#9CB75F;" d="M46.222,104.172H18.676c-1.095,0-1.969-0.874-1.969-1.969c0-1.095,0.874-1.969,1.969-1.969h27.538
		c1.079,0,1.953,0.874,1.953,1.969C48.167,103.298,47.293,104.172,46.222,104.172z"/>
	<path style="fill:#9CB75F;" d="M29.357,111.057h-9.074c-1.079,0-1.969-0.89-1.969-1.969c0-1.095,0.89-1.969,1.969-1.969h9.074
		c1.095,0,1.969,0.874,1.969,1.969C31.327,110.167,30.452,111.057,29.357,111.057z"/>
	<path style="fill:#9CB75F;" d="M44.599,111.057h-9.074c-1.095,0-1.969-0.89-1.969-1.969c0-1.095,0.874-1.969,1.969-1.969h9.074
		c1.095,0,1.969,0.874,1.969,1.969C46.568,110.167,45.694,111.057,44.599,111.057z"/>
</g>
<polygon style="fill:#17AA2B;" points="64.898,80.707 32.437,0.118 0,80.707 "/>
<polygon style="fill:#118927;" points="64.898,80.707 32.437,0.118 29.16,80.707 "/>
<path style="fill:#893210;" d="M127.945,103.18c-2.166,0-3.923-1.757-3.923-3.931V58.297c0-2.182,1.757-3.938,3.923-3.938
	c2.182,0,3.938,1.757,3.938,3.938v40.952C131.883,101.423,130.127,103.18,127.945,103.18z"/>
<path style="fill:#561D0B;" d="M127.945,88.883c-2.166,0-3.923-1.757-3.923-3.923V43.985c0-2.166,1.757-3.931,3.923-3.931
	c2.182,0,3.938,1.764,3.938,3.931v40.968C131.883,87.127,130.127,88.883,127.945,88.883z"/>
<g>
	<path style="fill:#9CB75F;" d="M141.729,104.172h-27.538c-1.095,0-1.969-0.874-1.969-1.969c0-1.095,0.874-1.969,1.969-1.969h27.538
		c1.079,0,1.953,0.874,1.953,1.969C143.683,103.298,142.801,104.172,141.729,104.172z"/>
	<path style="fill:#9CB75F;" d="M124.865,111.057h-9.074c-1.079,0-1.969-0.89-1.969-1.969c0-1.095,0.89-1.969,1.969-1.969h9.074
		c1.095,0,1.969,0.874,1.969,1.969C126.834,110.167,125.96,111.057,124.865,111.057z"/>
	<path style="fill:#9CB75F;" d="M140.107,111.057h-9.074c-1.095,0-1.969-0.89-1.969-1.969c0-1.095,0.874-1.969,1.969-1.969h9.074
		c1.095,0,1.969,0.874,1.969,1.969C142.076,110.167,141.202,111.057,140.107,111.057z"/>
</g>
<polygon style="fill:#17AA2B;" points="160.406,80.707 127.945,0.118 95.508,80.707 "/>
<polygon style="fill:#118927;" points="160.406,80.707 127.945,0.118 124.668,80.707 "/>
<path style="fill:#893210;" d="M80.187,220.341c-2.166,0-3.923-1.749-3.923-3.923v-40.952c0-2.182,1.757-3.938,3.923-3.938
	c2.198,0,3.938,1.757,3.938,3.938v40.952C84.126,218.592,82.385,220.341,80.187,220.341z"/>
<path style="fill:#561D0B;" d="M80.187,206.052c-2.166,0-3.923-1.757-3.923-3.923v-40.968c0-2.166,1.757-3.931,3.923-3.931
	c2.198,0,3.938,1.764,3.938,3.931v40.968C84.126,204.296,82.385,206.052,80.187,206.052z"/>
<g>
	<path style="fill:#9CB75F;" d="M93.972,221.342H66.434c-1.095,0-1.969-0.874-1.969-1.969s0.874-1.969,1.969-1.969h27.538
		c1.079,0,1.953,0.874,1.953,1.969S95.051,221.342,93.972,221.342z"/>
	<path style="fill:#9CB75F;" d="M77.123,228.218h-9.09c-1.063,0-1.969-0.882-1.969-1.961c0-1.095,0.906-1.969,1.969-1.969h9.09
		c1.079,0,1.969,0.874,1.969,1.969C79.092,227.336,78.202,228.218,77.123,228.218z"/>
	<path style="fill:#9CB75F;" d="M92.357,228.218h-9.074c-1.095,0-1.969-0.882-1.969-1.961c0-1.095,0.874-1.969,1.969-1.969h9.074
		c1.095,0,1.969,0.874,1.969,1.969C94.326,227.336,93.452,228.218,92.357,228.218z"/>
</g>
<polygon style="fill:#17AA2B;" points="112.648,197.876 80.187,117.287 47.742,197.876 "/>
<polygon style="fill:#118927;" points="112.648,197.876 80.187,117.287 76.91,197.876 "/>
<path style="fill:#893210;" d="M355.391,103.18c-2.166,0-3.923-1.757-3.923-3.931V58.297c0-2.182,1.757-3.938,3.923-3.938
	c2.182,0,3.938,1.757,3.938,3.938v40.952C359.329,101.423,357.573,103.18,355.391,103.18z"/>
<path style="fill:#561D0B;" d="M355.391,88.883c-2.166,0-3.923-1.757-3.923-3.923V43.985c0-2.166,1.757-3.931,3.923-3.931
	c2.182,0,3.938,1.764,3.938,3.931v40.968C359.329,87.127,357.573,88.883,355.391,88.883z"/>
<g>
	<path style="fill:#9CB75F;" d="M369.176,104.172h-27.538c-1.095,0-1.969-0.874-1.969-1.969c0-1.095,0.874-1.969,1.969-1.969h27.538
		c1.079,0,1.953,0.874,1.953,1.969C371.129,103.298,370.247,104.172,369.176,104.172z"/>
	<path style="fill:#9CB75F;" d="M352.311,111.057h-9.074c-1.079,0-1.969-0.89-1.969-1.969c0-1.095,0.89-1.969,1.969-1.969h9.074
		c1.095,0,1.969,0.874,1.969,1.969C354.28,110.167,353.406,111.057,352.311,111.057z"/>
	<path style="fill:#9CB75F;" d="M367.553,111.057h-9.074c-1.095,0-1.969-0.89-1.969-1.969c0-1.095,0.874-1.969,1.969-1.969h9.074
		c1.095,0,1.969,0.874,1.969,1.969C369.522,110.167,368.648,111.057,367.553,111.057z"/>
</g>
<polygon style="fill:#17AA2B;" points="387.852,80.707 355.391,0.118 322.954,80.707 "/>
<polygon style="fill:#118927;" points="387.852,80.707 355.391,0.118 352.114,80.707 "/>
<path style="fill:#893210;" d="M450.899,103.18c-2.166,0-3.923-1.757-3.923-3.931V58.297c0-2.182,1.757-3.938,3.923-3.938
	c2.182,0,3.938,1.757,3.938,3.938v40.952C454.837,101.423,453.081,103.18,450.899,103.18z"/>
<path style="fill:#561D0B;" d="M450.899,88.883c-2.166,0-3.923-1.757-3.923-3.923V43.985c0-2.166,1.757-3.931,3.923-3.931
	c2.182,0,3.938,1.764,3.938,3.931v40.968C454.837,87.127,453.081,88.883,450.899,88.883z"/>
<g>
	<path style="fill:#9CB75F;" d="M464.683,104.172h-27.538c-1.095,0-1.969-0.874-1.969-1.969c0-1.095,0.874-1.969,1.969-1.969h27.538
		c1.079,0,1.953,0.874,1.953,1.969C466.637,103.298,465.755,104.172,464.683,104.172z"/>
	<path style="fill:#9CB75F;" d="M447.819,111.057h-9.074c-1.079,0-1.969-0.89-1.969-1.969c0-1.095,0.89-1.969,1.969-1.969h9.074
		c1.095,0,1.969,0.874,1.969,1.969C449.788,110.167,448.914,111.057,447.819,111.057z"/>
	<path style="fill:#9CB75F;" d="M463.061,111.057h-9.074c-1.095,0-1.969-0.89-1.969-1.969c0-1.095,0.874-1.969,1.969-1.969h9.074
		c1.095,0,1.969,0.874,1.969,1.969C465.03,110.167,464.156,111.057,463.061,111.057z"/>
</g>
<polygon style="fill:#17AA2B;" points="483.359,80.707 450.899,0.118 418.462,80.707 "/>
<polygon style="fill:#118927;" points="483.359,80.707 450.899,0.118 447.622,80.707 "/>
<path style="fill:#893210;" d="M403.141,220.341c-2.166,0-3.923-1.749-3.923-3.923v-40.952c0-2.182,1.757-3.938,3.923-3.938
	c2.198,0,3.938,1.757,3.938,3.938v40.952C407.079,218.592,405.339,220.341,403.141,220.341z"/>
<path style="fill:#561D0B;" d="M403.141,206.052c-2.166,0-3.923-1.757-3.923-3.923v-40.968c0-2.166,1.757-3.931,3.923-3.931
	c2.198,0,3.938,1.764,3.938,3.931v40.968C407.079,204.296,405.339,206.052,403.141,206.052z"/>
<g>
	<path style="fill:#9CB75F;" d="M416.926,221.342h-27.538c-1.095,0-1.969-0.874-1.969-1.969s0.874-1.969,1.969-1.969h27.538
		c1.079,0,1.953,0.874,1.953,1.969S418.005,221.342,416.926,221.342z"/>
	<path style="fill:#9CB75F;" d="M400.077,228.218h-9.09c-1.063,0-1.969-0.882-1.969-1.961c0-1.095,0.906-1.969,1.969-1.969h9.09
		c1.079,0,1.969,0.874,1.969,1.969C402.046,227.336,401.156,228.218,400.077,228.218z"/>
	<path style="fill:#9CB75F;" d="M415.311,228.218h-9.074c-1.095,0-1.969-0.882-1.969-1.961c0-1.095,0.874-1.969,1.969-1.969h9.074
		c1.095,0,1.969,0.874,1.969,1.969C417.28,227.336,416.406,228.218,415.311,228.218z"/>
</g>
<polygon style="fill:#17AA2B;" points="435.602,197.876 403.141,117.287 370.696,197.876 "/>
<polygon style="fill:#118927;" points="435.602,197.876 403.141,117.287 399.864,197.876 "/>
</svg>